<?xml version="1.0" encoding="utf-8"?>
<!-- Generator: Adobe Illustrator 24.1.2, SVG Export Plug-In . SVG Version: 6.00 Build 0)  -->
<svg version="1.1" id="Layer_1" xmlns="http://www.w3.org/2000/svg" xmlns:xlink="http://www.w3.org/1999/xlink" x="0px" y="0px"
	 viewBox="0 0 651.89 127.56" style="enable-background:new 0 0 651.89 127.56;" xml:space="preserve">
<style type="text/css">
	.st0{display:none;}
	.st1{display:inline;fill:none;stroke:#000000;stroke-width:4;stroke-miterlimit:20;}
	.st2{fill:none;stroke:#000000;stroke-width:7;stroke-linecap:round;stroke-miterlimit:20;}
	.st3{display:inline;}
</style>
<g class="st0">
	<path class="st1" d="M649.88,105.59c0,10.91-8.93,19.84-19.84,19.84H21.85c-10.91,0-19.84-8.93-19.84-19.84V21.97
		c0-10.91,8.93-19.84,19.84-19.84h608.18c10.91,0,19.84,8.93,19.84,19.84V105.59z"/>
</g>
<g>
	<g>
		<g>
			<path class="st2" d="M69.03,112.45c-26.88,0-48.67-21.79-48.67-48.67c0-4.37,0.58-8.61,1.66-12.65"/>
			<g>
				<polygon points="28.53,65.9 44.7,21.63 8.55,51.88 				"/>
			</g>
		</g>
	</g>
	<g>
		<g>
			<path class="st2" d="M69.03,15.13c26.88,0,48.67,21.79,48.67,48.67c0,4.37-0.58,8.61-1.66,12.65"/>
			<g>
				<polygon points="109.53,61.67 93.36,105.94 129.51,75.69 				"/>
			</g>
		</g>
	</g>
</g>
<g class="st0">
	<path class="st3" d="M286.33,17.55v30.57h-2.41c-0.78-5.87-2.18-10.54-4.2-14.02c-2.02-3.48-4.9-6.24-8.64-8.28
		c-3.74-2.04-7.61-3.06-11.6-3.06c-4.52,0-8.26,1.38-11.21,4.14c-2.96,2.76-4.43,5.9-4.43,9.42c0,2.7,0.93,5.15,2.8,7.37
		c2.69,3.26,9.1,7.61,19.23,13.04c8.26,4.43,13.9,7.83,16.92,10.2c3.02,2.37,5.35,5.16,6.98,8.38c1.63,3.22,2.44,6.58,2.44,10.1
		c0,6.69-2.6,12.46-7.79,17.31c-5.19,4.85-11.88,7.27-20.05,7.27c-2.56,0-4.98-0.2-7.24-0.59c-1.35-0.22-4.14-1.01-8.38-2.38
		s-6.92-2.05-8.05-2.05c-1.09,0-1.95,0.33-2.57,0.98c-0.63,0.65-1.1,2-1.4,4.04h-2.41V79.67h2.41c1.13,6.35,2.65,11.09,4.56,14.24
		c1.91,3.15,4.83,5.77,8.77,7.85c3.93,2.09,8.25,3.13,12.94,3.13c5.43,0,9.72-1.43,12.88-4.3c3.15-2.87,4.73-6.26,4.73-10.17
		c0-2.17-0.6-4.37-1.79-6.58c-1.2-2.22-3.05-4.28-5.57-6.19c-1.69-1.3-6.32-4.07-13.89-8.31s-12.94-7.62-16.13-10.14
		s-5.62-5.3-7.27-8.34c-1.65-3.04-2.48-6.39-2.48-10.04c0-6.34,2.43-11.81,7.3-16.39c4.87-4.58,11.06-6.88,18.58-6.88
		c4.69,0,9.67,1.15,14.93,3.46c2.43,1.09,4.15,1.63,5.15,1.63c1.13,0,2.05-0.34,2.77-1.01c0.72-0.67,1.29-2.03,1.73-4.07H286.33z"/>
	<path class="st3" d="M313.58,70.74c-0.04,8.87,2.11,15.82,6.45,20.86c4.35,5.04,9.45,7.56,15.32,7.56c3.91,0,7.31-1.08,10.2-3.23
		c2.89-2.15,5.31-5.83,7.27-11.05l2.02,1.3c-0.91,5.96-3.56,11.38-7.95,16.26c-4.39,4.89-9.89,7.33-16.49,7.33
		c-7.17,0-13.31-2.79-18.42-8.38c-5.11-5.58-7.66-13.09-7.66-22.52c0-10.21,2.62-18.18,7.86-23.89c5.24-5.71,11.81-8.57,19.72-8.57
		c6.69,0,12.19,2.21,16.49,6.62c4.3,4.41,6.45,10.31,6.45,17.7H313.58z M313.58,66.96h27.64c-0.22-3.82-0.67-6.52-1.37-8.08
		c-1.09-2.43-2.71-4.35-4.86-5.74s-4.4-2.09-6.75-2.09c-3.61,0-6.83,1.4-9.68,4.21C315.72,58.06,314.06,61.96,313.58,66.96z"/>
	<path class="st3" d="M380.27,46.49v13.43c5-8.95,10.13-13.43,15.38-13.43c2.39,0,4.37,0.73,5.93,2.18s2.35,3.14,2.35,5.05
		c0,1.7-0.57,3.13-1.69,4.3c-1.13,1.17-2.48,1.76-4.04,1.76c-1.52,0-3.23-0.75-5.12-2.25c-1.89-1.5-3.29-2.25-4.21-2.25
		c-0.78,0-1.63,0.44-2.54,1.3c-1.96,1.78-3.98,4.72-6.06,8.8v28.62c0,3.3,0.41,5.8,1.24,7.5c0.56,1.17,1.56,2.15,3,2.93
		c1.43,0.78,3.5,1.17,6.19,1.17v2.35h-30.57v-2.35c3.04,0,5.3-0.48,6.78-1.43c1.09-0.69,1.85-1.8,2.28-3.32
		c0.22-0.74,0.33-2.85,0.33-6.32V71.39c0-6.95-0.14-11.09-0.42-12.42c-0.28-1.33-0.8-2.29-1.56-2.9c-0.76-0.61-1.71-0.91-2.84-0.91
		c-1.35,0-2.87,0.33-4.56,0.98l-0.65-2.35l18.06-7.3H380.27z"/>
	<path class="st3" d="M427.85,46.49v47.98c0,3.74,0.27,6.23,0.82,7.46c0.54,1.24,1.35,2.16,2.41,2.77c1.06,0.61,3.01,0.91,5.83,0.91
		v2.35h-29.01v-2.35c2.91,0,4.87-0.28,5.87-0.85c1-0.56,1.79-1.5,2.38-2.8s0.88-3.8,0.88-7.5V71.46c0-6.47-0.2-10.67-0.59-12.58
		c-0.3-1.39-0.78-2.36-1.43-2.9c-0.65-0.54-1.54-0.81-2.67-0.81c-1.22,0-2.7,0.33-4.43,0.98l-0.91-2.35l17.99-7.3H427.85z
		 M422.44,15.27c1.83,0,3.38,0.64,4.66,1.92c1.28,1.28,1.92,2.84,1.92,4.66s-0.64,3.39-1.92,4.69c-1.28,1.3-2.84,1.96-4.66,1.96
		s-3.39-0.65-4.69-1.96s-1.96-2.87-1.96-4.69s0.64-3.38,1.92-4.66C419,15.91,420.57,15.27,422.44,15.27z"/>
	<path class="st3" d="M454.39,70.74c-0.04,8.87,2.11,15.82,6.45,20.86c4.35,5.04,9.45,7.56,15.32,7.56c3.91,0,7.31-1.08,10.2-3.23
		s5.31-5.83,7.27-11.05l2.02,1.3c-0.91,5.96-3.56,11.38-7.95,16.26c-4.39,4.89-9.89,7.33-16.49,7.33c-7.17,0-13.31-2.79-18.42-8.38
		c-5.11-5.58-7.66-13.09-7.66-22.52c0-10.21,2.62-18.18,7.85-23.89c5.24-5.71,11.81-8.57,19.72-8.57c6.69,0,12.19,2.21,16.49,6.62
		c4.3,4.41,6.45,10.31,6.45,17.7H454.39z M454.39,66.96h27.64c-0.22-3.82-0.68-6.52-1.37-8.08c-1.09-2.43-2.71-4.35-4.86-5.74
		s-4.4-2.09-6.75-2.09c-3.61,0-6.84,1.4-9.68,4.21S454.86,61.96,454.39,66.96z"/>
	<path class="st3" d="M542.19,46.49v20.34h-2.15c-1.65-6.39-3.77-10.73-6.36-13.04c-2.59-2.3-5.88-3.46-9.88-3.46
		c-3.04,0-5.5,0.8-7.37,2.41c-1.87,1.61-2.8,3.39-2.8,5.35c0,2.43,0.7,4.52,2.09,6.26c1.35,1.78,4.08,3.67,8.21,5.67l9.52,4.63
		c8.82,4.3,13.23,9.97,13.23,17.01c0,5.43-2.05,9.81-6.16,13.13c-4.11,3.33-8.7,4.99-13.79,4.99c-3.65,0-7.82-0.65-12.52-1.96
		c-1.43-0.43-2.61-0.65-3.52-0.65c-1,0-1.78,0.57-2.35,1.7h-2.15V87.56h2.15c1.22,6.08,3.54,10.67,6.98,13.75
		c3.43,3.09,7.28,4.63,11.54,4.63c3,0,5.44-0.88,7.33-2.64s2.84-3.88,2.84-6.36c0-3-1.05-5.52-3.16-7.56
		c-2.11-2.04-6.31-4.63-12.61-7.76c-6.3-3.13-10.43-5.95-12.39-8.47c-1.96-2.48-2.93-5.61-2.93-9.39c0-4.91,1.68-9.02,5.05-12.32
		c3.37-3.3,7.72-4.95,13.07-4.95c2.35,0,5.19,0.5,8.54,1.5c2.22,0.65,3.69,0.98,4.43,0.98c0.69,0,1.24-0.15,1.63-0.46
		c0.39-0.3,0.85-0.98,1.37-2.02H542.19z"/>
</g>
<g class="st0">
	<path class="st3" d="M188.61,17.55c11.47,0,21.41,4.36,29.82,13.07c8.41,8.71,12.61,19.59,12.61,32.63
		c0,13.43-4.24,24.58-12.71,33.44c-8.47,8.87-18.73,13.3-30.77,13.3c-12.17,0-22.39-4.32-30.67-12.97
		c-8.28-8.65-12.42-19.84-12.42-33.57c0-14.04,4.78-25.49,14.34-34.35C167.12,21.39,177.05,17.55,188.61,17.55z M187.37,22.31
		c-7.91,0-14.25,2.93-19.04,8.8c-5.95,7.3-8.93,17.99-8.93,32.07c0,14.43,3.09,25.53,9.26,33.31c4.74,5.91,10.99,8.87,18.77,8.87
		c8.3,0,15.16-3.24,20.57-9.71c5.41-6.48,8.12-16.69,8.12-30.64c0-15.12-2.98-26.4-8.93-33.83
		C202.41,25.26,195.8,22.31,187.37,22.31z"/>
	<path class="st3" d="M257.78,59.14c7-8.43,13.67-12.65,20.01-12.65c3.26,0,6.06,0.81,8.41,2.44c2.35,1.63,4.21,4.31,5.61,8.05
		c0.96,2.61,1.43,6.61,1.43,12v25.49c0,3.78,0.3,6.35,0.91,7.69c0.48,1.09,1.25,1.93,2.31,2.54c1.06,0.61,3.03,0.91,5.9,0.91v2.35
		h-29.53v-2.35h1.24c2.78,0,4.73-0.42,5.83-1.27s1.88-2.1,2.31-3.75c0.17-0.65,0.26-2.69,0.26-6.13V70.02
		c0-5.43-0.71-9.38-2.12-11.83c-1.41-2.46-3.79-3.68-7.14-3.68c-5.17,0-10.32,2.83-15.45,8.47v31.49c0,4.04,0.24,6.54,0.72,7.5
		c0.61,1.26,1.44,2.18,2.51,2.77c1.06,0.59,3.23,0.88,6.49,0.88v2.35h-29.53v-2.35h1.3c3.04,0,5.09-0.77,6.16-2.31
		c1.06-1.54,1.6-4.49,1.6-8.83V72.31c0-7.17-0.16-11.54-0.49-13.1c-0.33-1.56-0.83-2.63-1.5-3.19c-0.67-0.56-1.58-0.85-2.71-0.85
		c-1.22,0-2.67,0.33-4.37,0.98l-0.98-2.35l17.99-7.3h2.8V59.14z"/>
	<path class="st3" d="M317.16,70.74c-0.04,8.87,2.11,15.82,6.45,20.86c4.35,5.04,9.45,7.56,15.32,7.56c3.91,0,7.31-1.08,10.2-3.23
		c2.89-2.15,5.31-5.83,7.27-11.05l2.02,1.3c-0.91,5.96-3.56,11.38-7.95,16.26c-4.39,4.89-9.89,7.33-16.49,7.33
		c-7.17,0-13.31-2.79-18.42-8.38c-5.11-5.58-7.66-13.09-7.66-22.52c0-10.21,2.62-18.18,7.86-23.89c5.24-5.71,11.81-8.57,19.72-8.57
		c6.69,0,12.19,2.21,16.49,6.62c4.3,4.41,6.45,10.31,6.45,17.7H317.16z M317.16,66.96h27.64c-0.22-3.82-0.67-6.52-1.37-8.08
		c-1.09-2.43-2.71-4.35-4.86-5.74s-4.4-2.09-6.75-2.09c-3.61,0-6.83,1.4-9.68,4.21C319.3,58.06,317.64,61.96,317.16,66.96z"/>
	<path class="st3" d="M404.97,46.49v20.34h-2.15c-1.65-6.39-3.77-10.73-6.36-13.04c-2.59-2.3-5.88-3.46-9.88-3.46
		c-3.04,0-5.5,0.8-7.37,2.41c-1.87,1.61-2.8,3.39-2.8,5.35c0,2.43,0.7,4.52,2.09,6.26c1.35,1.78,4.08,3.67,8.21,5.67l9.52,4.63
		c8.82,4.3,13.23,9.97,13.23,17.01c0,5.43-2.05,9.81-6.16,13.13c-4.11,3.33-8.7,4.99-13.79,4.99c-3.65,0-7.82-0.65-12.52-1.96
		c-1.43-0.43-2.61-0.65-3.52-0.65c-1,0-1.78,0.57-2.35,1.7h-2.15V87.56h2.15c1.22,6.08,3.54,10.67,6.98,13.75
		c3.43,3.09,7.28,4.63,11.54,4.63c3,0,5.44-0.88,7.33-2.64s2.84-3.88,2.84-6.36c0-3-1.05-5.52-3.16-7.56
		c-2.11-2.04-6.31-4.63-12.61-7.76c-6.3-3.13-10.43-5.95-12.39-8.47c-1.96-2.48-2.93-5.61-2.93-9.39c0-4.91,1.68-9.02,5.05-12.32
		c3.37-3.3,7.72-4.95,13.07-4.95c2.35,0,5.19,0.5,8.54,1.5c2.22,0.65,3.69,0.98,4.43,0.98c0.69,0,1.24-0.15,1.63-0.46
		c0.39-0.3,0.85-0.98,1.37-2.02H404.97z"/>
	<path class="st3" d="M435.87,15.27v43.68c4.82-5.3,8.65-8.7,11.47-10.2c2.83-1.5,5.65-2.25,8.47-2.25c3.39,0,6.3,0.93,8.74,2.8
		c2.43,1.87,4.24,4.8,5.41,8.8c0.83,2.78,1.24,7.87,1.24,15.25v21.12c0,3.78,0.3,6.37,0.91,7.76c0.43,1.04,1.17,1.87,2.22,2.48
		c1.04,0.61,2.96,0.91,5.74,0.91v2.35h-29.33v-2.35h1.37c2.78,0,4.72-0.42,5.8-1.27s1.85-2.1,2.28-3.75c0.13-0.69,0.2-2.74,0.2-6.13
		V73.35c0-6.52-0.34-10.8-1.01-12.84s-1.75-3.57-3.23-4.6c-1.48-1.02-3.26-1.53-5.35-1.53c-2.13,0-4.35,0.57-6.65,1.69
		c-2.3,1.13-5.06,3.41-8.28,6.85v31.55c0,4.09,0.23,6.63,0.68,7.63c0.46,1,1.3,1.84,2.54,2.51c1.24,0.67,3.38,1.01,6.42,1.01v2.35
		h-29.6v-2.35c2.65,0,4.74-0.41,6.26-1.24c0.87-0.43,1.56-1.26,2.09-2.48c0.52-1.22,0.78-3.69,0.78-7.43V40.43
		c0-6.82-0.16-11.02-0.49-12.58s-0.83-2.63-1.5-3.19c-0.67-0.56-1.58-0.85-2.71-0.85c-0.91,0-2.39,0.35-4.43,1.04l-0.91-2.28
		l17.86-7.3H435.87z"/>
	<path class="st3" d="M514.29,46.49c9.04,0,16.3,3.43,21.77,10.3c4.65,5.87,6.98,12.6,6.98,20.21c0,5.35-1.28,10.76-3.85,16.23
		s-6.09,9.6-10.59,12.39c-4.5,2.78-9.51,4.17-15.03,4.17c-9,0-16.15-3.58-21.45-10.76c-4.48-6.04-6.71-12.82-6.71-20.34
		c0-5.48,1.36-10.92,4.07-16.33c2.72-5.41,6.29-9.41,10.72-11.99S509.34,46.49,514.29,46.49z M512.27,50.73
		c-2.3,0-4.62,0.68-6.94,2.05c-2.33,1.37-4.21,3.77-5.64,7.2c-1.43,3.43-2.15,7.84-2.15,13.23c0,8.69,1.73,16.19,5.18,22.49
		c3.46,6.3,8.01,9.45,13.66,9.45c4.21,0,7.69-1.74,10.43-5.22c2.74-3.48,4.11-9.45,4.11-17.93c0-10.6-2.28-18.95-6.84-25.03
		C520.99,52.81,517.05,50.73,512.27,50.73z"/>
	<path class="st3" d="M569.18,28.63v19.62h13.95v4.56h-13.95v38.72c0,3.87,0.55,6.48,1.66,7.82s2.53,2.02,4.27,2.02
		c1.43,0,2.82-0.45,4.17-1.34c1.35-0.89,2.39-2.21,3.13-3.94h2.54c-1.52,4.26-3.67,7.46-6.45,9.62s-5.65,3.23-8.6,3.23
		c-2,0-3.96-0.55-5.87-1.66c-1.91-1.11-3.32-2.69-4.24-4.76c-0.91-2.06-1.37-5.25-1.37-9.55V52.81h-9.45v-2.15
		c2.39-0.96,4.83-2.58,7.33-4.86c2.5-2.28,4.73-4.99,6.68-8.12c1-1.65,2.39-4.67,4.17-9.06H569.18z"/>
	<path class="st3" d="M627.53,46.49v20.34h-2.15c-1.65-6.39-3.77-10.73-6.36-13.04c-2.59-2.3-5.88-3.46-9.88-3.46
		c-3.04,0-5.5,0.8-7.37,2.41c-1.87,1.61-2.8,3.39-2.8,5.35c0,2.43,0.7,4.52,2.09,6.26c1.35,1.78,4.08,3.67,8.21,5.67l9.52,4.63
		c8.82,4.3,13.23,9.97,13.23,17.01c0,5.43-2.05,9.81-6.16,13.13c-4.11,3.33-8.7,4.99-13.79,4.99c-3.65,0-7.82-0.65-12.52-1.96
		c-1.43-0.43-2.61-0.65-3.52-0.65c-1,0-1.78,0.57-2.35,1.7h-2.15V87.56h2.15c1.22,6.08,3.54,10.67,6.98,13.75
		c3.43,3.09,7.28,4.63,11.54,4.63c3,0,5.44-0.88,7.33-2.64s2.84-3.88,2.84-6.36c0-3-1.05-5.52-3.16-7.56
		c-2.11-2.04-6.31-4.63-12.61-7.76c-6.3-3.13-10.43-5.95-12.39-8.47c-1.96-2.48-2.93-5.61-2.93-9.39c0-4.91,1.68-9.02,5.05-12.32
		c3.37-3.3,7.72-4.95,13.07-4.95c2.35,0,5.19,0.5,8.54,1.5c2.22,0.65,3.69,0.98,4.43,0.98c0.69,0,1.24-0.15,1.63-0.46
		c0.39-0.3,0.85-0.98,1.37-2.02H627.53z"/>
</g>
<g>
	<path d="M208.05,17.92l1.74,24.83h-1.74c-2.32-7.43-5.64-12.78-9.95-16.05c-4.31-3.27-9.48-4.9-15.51-4.9
		c-5.06,0-9.63,1.23-13.71,3.69c-4.08,2.46-7.3,6.38-9.64,11.77c-2.34,5.39-3.51,12.08-3.51,20.09c0,6.61,1.1,12.33,3.32,17.18
		c2.21,4.85,5.53,8.56,9.97,11.15c4.44,2.58,9.5,3.88,15.2,3.88c4.94,0,9.31-1.01,13.09-3.04c3.78-2.03,7.94-6.06,12.47-12.09
		l1.74,1.08c-3.82,6.5-8.28,11.26-13.37,14.27c-5.1,3.02-11.15,4.52-18.15,4.52c-12.62,0-22.4-4.49-29.33-13.46
		c-5.17-6.68-7.75-14.54-7.75-23.59c0-7.29,1.7-13.98,5.11-20.09c3.41-6.1,8.1-10.83,14.08-14.19c5.97-3.36,12.5-5.04,19.58-5.04
		c5.51,0,10.94,1.29,16.3,3.88c1.57,0.79,2.7,1.18,3.37,1.18c1.01,0,1.89-0.34,2.64-1.02c0.97-0.97,1.67-2.32,2.08-4.04H208.05z"/>
	<path d="M234.24,16.03v36.08c4.16-4.38,7.45-7.19,9.89-8.43c2.43-1.24,4.87-1.86,7.3-1.86c2.92,0,5.43,0.77,7.53,2.32
		c2.1,1.54,3.65,3.97,4.66,7.27c0.71,2.3,1.07,6.5,1.07,12.6v17.45c0,3.12,0.26,5.26,0.79,6.41c0.37,0.86,1.01,1.54,1.91,2.05
		s2.55,0.75,4.94,0.75v1.94h-25.29v-1.94h1.18c2.4,0,4.06-0.35,5-1.05c0.94-0.7,1.59-1.73,1.97-3.1c0.11-0.57,0.17-2.26,0.17-5.06
		V64.01c0-5.39-0.29-8.92-0.87-10.61c-0.58-1.69-1.51-2.95-2.78-3.8c-1.27-0.84-2.81-1.27-4.61-1.27c-1.84,0-3.75,0.47-5.73,1.4
		c-1.99,0.93-4.36,2.82-7.14,5.66v26.07c0,3.38,0.2,5.47,0.59,6.3c0.39,0.83,1.12,1.52,2.19,2.07c1.07,0.56,2.91,0.83,5.54,0.83
		v1.94h-25.51v-1.94c2.28,0,4.08-0.34,5.39-1.02c0.75-0.36,1.35-1.04,1.8-2.05c0.45-1,0.67-3.05,0.67-6.14V36.82
		c0-5.64-0.14-9.1-0.42-10.39c-0.28-1.29-0.71-2.17-1.29-2.64c-0.58-0.47-1.36-0.7-2.33-0.7c-0.79,0-2.06,0.29-3.82,0.86l-0.79-1.88
		l15.4-6.03H234.24z"/>
	<path d="M305.83,85.5c-5.28,3.91-8.6,6.17-9.95,6.79c-2.02,0.9-4.18,1.35-6.46,1.35c-3.56,0-6.49-1.17-8.79-3.5
		c-2.3-2.33-3.46-5.4-3.46-9.21c0-2.4,0.56-4.49,1.69-6.25c1.54-2.44,4.21-4.74,8.01-6.89c3.8-2.15,10.12-4.77,18.96-7.86v-1.94
		c0-4.92-0.81-8.29-2.44-10.13s-4-2.75-7.11-2.75c-2.36,0-4.23,0.61-5.62,1.83c-1.42,1.22-2.14,2.62-2.14,4.2l0.11,3.12
		c0,1.65-0.44,2.93-1.32,3.82c-0.88,0.9-2.03,1.35-3.46,1.35c-1.39,0-2.52-0.47-3.4-1.4c-0.88-0.93-1.32-2.21-1.32-3.82
		c0-3.09,1.65-5.92,4.94-8.51c3.3-2.58,7.92-3.88,13.88-3.88c4.57,0,8.32,0.74,11.24,2.21c2.21,1.11,3.84,2.85,4.89,5.22
		c0.67,1.54,1.01,4.7,1.01,9.48v16.75c0,4.7,0.09,7.58,0.28,8.64c0.19,1.06,0.5,1.77,0.93,2.13c0.43,0.36,0.93,0.54,1.49,0.54
		c0.6,0,1.12-0.13,1.57-0.38c0.79-0.47,2.3-1.78,4.55-3.93v3.02c-4.2,5.38-8.2,8.08-12.03,8.08c-1.84,0-3.3-0.61-4.38-1.83
		C306.43,90.53,305.86,88.45,305.83,85.5z M305.83,82V63.21c-5.66,2.15-9.31,3.68-10.96,4.58c-2.96,1.58-5.08,3.23-6.35,4.96
		c-1.27,1.72-1.91,3.61-1.91,5.65c0,2.58,0.81,4.73,2.42,6.44c1.61,1.71,3.46,2.56,5.56,2.56C297.43,87.39,301.18,85.59,305.83,82z"
		/>
	<path d="M342.75,52.27c6.03-6.96,11.78-10.45,17.25-10.45c2.81,0,5.23,0.67,7.25,2.02c2.02,1.35,3.63,3.56,4.83,6.65
		c0.82,2.15,1.24,5.46,1.24,9.91v21.06c0,3.12,0.26,5.24,0.79,6.35c0.41,0.9,1.08,1.6,2,2.1c0.92,0.5,2.61,0.75,5.08,0.75v1.94
		h-25.45v-1.94h1.07c2.4,0,4.07-0.35,5.03-1.05c0.96-0.7,1.62-1.73,1.99-3.1c0.15-0.54,0.22-2.23,0.22-5.06v-20.2
		c0-4.49-0.61-7.75-1.83-9.78c-1.22-2.03-3.27-3.04-6.15-3.04c-4.46,0-8.9,2.33-13.32,7v26.01c0,3.34,0.21,5.4,0.62,6.19
		c0.52,1.04,1.25,1.8,2.16,2.29c0.92,0.49,2.78,0.73,5.59,0.73v1.94h-25.45v-1.94h1.12c2.62,0,4.39-0.64,5.31-1.91
		c0.92-1.27,1.38-3.71,1.38-7.3V63.15c0-5.92-0.14-9.53-0.42-10.83c-0.28-1.29-0.71-2.17-1.29-2.64c-0.58-0.47-1.36-0.7-2.33-0.7
		c-1.05,0-2.3,0.27-3.76,0.81l-0.84-1.94l15.51-6.03h2.42V52.27z"/>
	<path d="M399.05,74.62c-3.15-1.47-5.56-3.53-7.25-6.17c-1.69-2.64-2.53-5.56-2.53-8.75c0-4.88,1.92-9.08,5.76-12.6
		c3.84-3.52,8.76-5.28,14.75-5.28c4.91,0,9.16,1.15,12.76,3.45h10.9c1.61,0,2.55,0.05,2.81,0.13c0.26,0.09,0.45,0.24,0.56,0.46
		c0.22,0.32,0.34,0.9,0.34,1.72c0,0.93-0.09,1.58-0.28,1.94c-0.11,0.18-0.31,0.32-0.59,0.43c-0.28,0.11-1.23,0.16-2.84,0.16h-6.69
		c2.1,2.58,3.15,5.89,3.15,9.91c0,4.6-1.84,8.53-5.51,11.79c-3.67,3.27-8.6,4.9-14.78,4.9c-2.55,0-5.15-0.36-7.81-1.08
		c-1.65,1.36-2.76,2.56-3.34,3.58c-0.58,1.02-0.87,1.89-0.87,2.61c0,0.61,0.31,1.2,0.93,1.78c0.62,0.58,1.83,0.99,3.63,1.24
		c1.05,0.14,3.67,0.27,7.87,0.38c7.72,0.18,12.72,0.43,15,0.75c3.48,0.47,6.27,1.71,8.34,3.72c2.08,2.01,3.12,4.49,3.12,7.43
		c0,4.06-1.99,7.86-5.96,11.42c-5.84,5.24-13.47,7.86-22.87,7.86c-7.23,0-13.34-1.56-18.32-4.69c-2.81-1.8-4.21-3.66-4.21-5.6
		c0-0.86,0.21-1.72,0.62-2.58c0.64-1.33,1.95-3.18,3.93-5.55c0.26-0.32,2.17-2.26,5.73-5.82c-1.95-1.11-3.33-2.11-4.13-2.99
		c-0.81-0.88-1.21-1.88-1.21-2.99c0-1.26,0.53-2.73,1.6-4.42C392.73,80.1,395.19,77.71,399.05,74.62z M398.49,92.61
		c-1.76,1.83-3.09,3.54-3.99,5.12c-0.9,1.58-1.35,3.03-1.35,4.36c0,1.72,1.09,3.23,3.26,4.52c3.75,2.23,9.16,3.34,16.24,3.34
		c6.74,0,11.72-1.14,14.92-3.42c3.2-2.28,4.8-4.71,4.8-7.3c0-1.87-0.96-3.2-2.87-3.99c-1.95-0.79-5.81-1.26-11.58-1.4
		C409.5,93.63,403.02,93.22,398.49,92.61z M408.83,44.41c-2.77,0-5.09,1.06-6.97,3.18c-1.87,2.12-2.81,5.37-2.81,9.75
		c0,5.67,1.27,10.07,3.82,13.19c1.95,2.37,4.42,3.55,7.42,3.55c2.85,0,5.19-1.02,7.02-3.07c1.83-2.05,2.75-5.26,2.75-9.64
		c0-5.71-1.29-10.18-3.88-13.41C414.28,45.6,411.82,44.41,408.83,44.41z"/>
	<path d="M451.48,61.86c-0.04,7.32,1.82,13.07,5.56,17.23c3.75,4.17,8.15,6.25,13.21,6.25c3.37,0,6.3-0.89,8.79-2.67
		c2.49-1.78,4.58-4.82,6.27-9.13l1.74,1.08c-0.79,4.92-3.07,9.4-6.86,13.44c-3.78,4.04-8.52,6.06-14.22,6.06
		c-6.18,0-11.47-2.31-15.87-6.92c-4.4-4.61-6.6-10.82-6.6-18.61c0-8.44,2.26-15.02,6.77-19.74c4.51-4.72,10.18-7.08,17-7.08
		c5.77,0,10.51,1.82,14.22,5.47c3.71,3.64,5.56,8.52,5.56,14.62H451.48z M451.48,58.74h23.83c-0.19-3.16-0.58-5.39-1.18-6.68
		c-0.94-2.01-2.33-3.59-4.19-4.74c-1.85-1.15-3.79-1.72-5.82-1.72c-3.11,0-5.89,1.16-8.34,3.47
		C453.32,51.39,451.89,54.61,451.48,58.74z"/>
	<path d="M511.6,16.03v65.43c0,3.09,0.23,5.13,0.7,6.14c0.47,1.01,1.19,1.77,2.16,2.29c0.97,0.52,2.79,0.78,5.45,0.78v1.94h-25.23
		v-1.94c2.36,0,3.97-0.23,4.83-0.7c0.86-0.47,1.54-1.24,2.02-2.32c0.49-1.08,0.73-3.14,0.73-6.19V36.66c0-5.57-0.13-8.98-0.39-10.26
		c-0.26-1.27-0.68-2.14-1.26-2.61c-0.58-0.47-1.32-0.7-2.22-0.7c-0.97,0-2.21,0.29-3.71,0.86l-0.96-1.88l15.34-6.03H511.6z"/>
	<path d="M551.05,41.83c7.79,0,14.05,2.84,18.77,8.51c4.01,4.85,6.01,10.41,6.01,16.69c0,4.42-1.11,8.89-3.32,13.41
		c-2.21,4.52-5.25,7.93-9.13,10.23c-3.88,2.3-8.2,3.45-12.95,3.45c-7.75,0-13.92-2.96-18.49-8.89c-3.86-4.99-5.79-10.59-5.79-16.8
		c0-4.52,1.17-9.02,3.51-13.49c2.34-4.47,5.42-7.77,9.24-9.91C542.73,42.9,546.78,41.83,551.05,41.83z M549.3,45.33
		c-1.99,0-3.98,0.57-5.98,1.7c-2,1.13-3.63,3.12-4.86,5.95c-1.24,2.84-1.85,6.48-1.85,10.93c0,7.18,1.49,13.37,4.47,18.58
		c2.98,5.21,6.9,7.81,11.77,7.81c3.63,0,6.63-1.44,8.99-4.31c2.36-2.87,3.54-7.81,3.54-14.81c0-8.76-1.97-15.65-5.9-20.68
		C556.81,47.05,553.42,45.33,549.3,45.33z"/>
	<path d="M597.18,74.62c-3.15-1.47-5.56-3.53-7.25-6.17c-1.69-2.64-2.53-5.56-2.53-8.75c0-4.88,1.92-9.08,5.76-12.6
		c3.84-3.52,8.76-5.28,14.75-5.28c4.91,0,9.16,1.15,12.76,3.45h10.9c1.61,0,2.55,0.05,2.81,0.13c0.26,0.09,0.45,0.24,0.56,0.46
		c0.22,0.32,0.34,0.9,0.34,1.72c0,0.93-0.09,1.58-0.28,1.94c-0.11,0.18-0.31,0.32-0.59,0.43c-0.28,0.11-1.23,0.16-2.84,0.16h-6.69
		c2.1,2.58,3.15,5.89,3.15,9.91c0,4.6-1.84,8.53-5.51,11.79c-3.67,3.27-8.6,4.9-14.78,4.9c-2.55,0-5.15-0.36-7.81-1.08
		c-1.65,1.36-2.76,2.56-3.34,3.58c-0.58,1.02-0.87,1.89-0.87,2.61c0,0.61,0.31,1.2,0.93,1.78c0.62,0.58,1.83,0.99,3.63,1.24
		c1.05,0.14,3.67,0.27,7.87,0.38c7.72,0.18,12.72,0.43,15,0.75c3.48,0.47,6.27,1.71,8.34,3.72c2.08,2.01,3.12,4.49,3.12,7.43
		c0,4.06-1.99,7.86-5.96,11.42c-5.84,5.24-13.47,7.86-22.87,7.86c-7.23,0-13.34-1.56-18.32-4.69c-2.81-1.8-4.21-3.66-4.21-5.6
		c0-0.86,0.21-1.72,0.62-2.58c0.64-1.33,1.95-3.18,3.93-5.55c0.26-0.32,2.17-2.26,5.73-5.82c-1.95-1.11-3.33-2.11-4.13-2.99
		c-0.81-0.88-1.21-1.88-1.21-2.99c0-1.26,0.53-2.73,1.6-4.42C590.86,80.1,593.32,77.71,597.18,74.62z M596.62,92.61
		c-1.76,1.83-3.09,3.54-3.99,5.12c-0.9,1.58-1.35,3.03-1.35,4.36c0,1.72,1.09,3.23,3.26,4.52c3.75,2.23,9.16,3.34,16.24,3.34
		c6.74,0,11.72-1.14,14.92-3.42c3.2-2.28,4.8-4.71,4.8-7.3c0-1.87-0.96-3.2-2.87-3.99c-1.95-0.79-5.81-1.26-11.58-1.4
		C607.63,93.63,601.15,93.22,596.62,92.61z M606.96,44.41c-2.77,0-5.09,1.06-6.97,3.18c-1.87,2.12-2.81,5.37-2.81,9.75
		c0,5.67,1.27,10.07,3.82,13.19c1.95,2.37,4.42,3.55,7.42,3.55c2.85,0,5.19-1.02,7.02-3.07c1.83-2.05,2.75-5.26,2.75-9.64
		c0-5.71-1.29-10.18-3.88-13.41C612.41,45.6,609.95,44.41,606.96,44.41z"/>
</g>
<g>
</g>
<g>
</g>
<g>
</g>
<g>
</g>
<g>
</g>
<g>
</g>
<g>
</g>
</svg>
