<?xml version="1.0" encoding="utf-8"?>
<!-- Generator: Adobe Illustrator 24.1.2, SVG Export Plug-In . SVG Version: 6.00 Build 0)  -->
<svg version="1.1" id="Layer_1" xmlns="http://www.w3.org/2000/svg" xmlns:xlink="http://www.w3.org/1999/xlink" x="0px" y="0px"
	 viewBox="0 0 651.89 127.56" style="enable-background:new 0 0 651.89 127.56;" xml:space="preserve">
<style type="text/css">
	.st0{display:none;}
	.st1{display:inline;fill:none;stroke:#000000;stroke-width:4;stroke-miterlimit:20;}
	.st2{fill:none;stroke:#FFFFFF;stroke-width:7;stroke-linecap:round;stroke-miterlimit:20;}
	.st3{fill:#FFFFFF;}
	.st4{display:inline;fill:#FFFFFF;}
</style>
<g class="st0">
	<path class="st1" d="M649.88,105.59c0,10.91-8.93,19.84-19.84,19.84H21.85c-10.91,0-19.84-8.93-19.84-19.84V21.97
		c0-10.91,8.93-19.84,19.84-19.84h608.18c10.91,0,19.84,8.93,19.84,19.84v83.62H649.88z"/>
</g>
<g>
	<g>
		<g>
			<path class="st2" d="M69.03,112.45c-26.88,0-48.67-21.79-48.67-48.67c0-4.37,0.58-8.61,1.66-12.65"/>
			<g>
				<polygon class="st3" points="28.53,65.9 44.7,21.63 8.55,51.88 				"/>
			</g>
		</g>
	</g>
	<g>
		<g>
			<path class="st2" d="M69.03,15.13c26.88,0,48.67,21.79,48.67,48.67c0,4.37-0.58,8.61-1.66,12.65"/>
			<g>
				<polygon class="st3" points="109.53,61.67 93.36,105.94 129.51,75.69 				"/>
			</g>
		</g>
	</g>
</g>
<g>
	<path class="st3" d="M286.33,17.55v30.57h-2.41c-0.78-5.87-2.18-10.54-4.2-14.02c-2.02-3.48-4.9-6.24-8.64-8.28
		c-3.74-2.04-7.61-3.06-11.6-3.06c-4.52,0-8.26,1.38-11.21,4.14c-2.96,2.76-4.43,5.9-4.43,9.42c0,2.7,0.93,5.15,2.8,7.37
		c2.69,3.26,9.1,7.61,19.23,13.04c8.26,4.43,13.9,7.83,16.92,10.2c3.02,2.37,5.35,5.16,6.98,8.38s2.44,6.58,2.44,10.1
		c0,6.69-2.6,12.46-7.79,17.31s-11.88,7.27-20.05,7.27c-2.56,0-4.98-0.2-7.24-0.59c-1.35-0.22-4.14-1.01-8.38-2.38
		s-6.92-2.05-8.05-2.05c-1.09,0-1.95,0.33-2.57,0.98c-0.63,0.65-1.1,2-1.4,4.04h-2.41V79.67h2.41c1.13,6.35,2.65,11.09,4.56,14.24
		s4.83,5.77,8.77,7.85c3.93,2.09,8.25,3.13,12.94,3.13c5.43,0,9.72-1.43,12.88-4.3c3.15-2.87,4.73-6.26,4.73-10.17
		c0-2.17-0.6-4.37-1.79-6.58c-1.2-2.22-3.05-4.28-5.57-6.19c-1.69-1.3-6.32-4.07-13.89-8.31s-12.94-7.62-16.13-10.14
		s-5.62-5.3-7.27-8.34c-1.65-3.04-2.48-6.39-2.48-10.04c0-6.34,2.43-11.81,7.3-16.39c4.87-4.58,11.06-6.88,18.58-6.88
		c4.69,0,9.67,1.15,14.93,3.46c2.43,1.09,4.15,1.63,5.15,1.63c1.13,0,2.05-0.34,2.77-1.01s1.29-2.03,1.73-4.07L286.33,17.55
		L286.33,17.55z"/>
	<path class="st3" d="M313.58,70.74c-0.04,8.87,2.11,15.82,6.45,20.86c4.35,5.04,9.45,7.56,15.32,7.56c3.91,0,7.31-1.08,10.2-3.23
		s5.31-5.83,7.27-11.05l2.02,1.3c-0.91,5.96-3.56,11.38-7.95,16.26c-4.39,4.89-9.89,7.33-16.49,7.33c-7.17,0-13.31-2.79-18.42-8.38
		c-5.11-5.58-7.66-13.09-7.66-22.52c0-10.21,2.62-18.18,7.86-23.89s11.81-8.57,19.72-8.57c6.69,0,12.19,2.21,16.49,6.62
		s6.45,10.31,6.45,17.7h-41.26V70.74z M313.58,66.96h27.64c-0.22-3.82-0.67-6.52-1.37-8.08c-1.09-2.43-2.71-4.35-4.86-5.74
		s-4.4-2.09-6.75-2.09c-3.61,0-6.83,1.4-9.68,4.21C315.72,58.06,314.06,61.96,313.58,66.96z"/>
	<path class="st3" d="M380.27,46.49v13.43c5-8.95,10.13-13.43,15.38-13.43c2.39,0,4.37,0.73,5.93,2.18s2.35,3.14,2.35,5.05
		c0,1.7-0.57,3.13-1.69,4.3c-1.13,1.17-2.48,1.76-4.04,1.76c-1.52,0-3.23-0.75-5.12-2.25c-1.89-1.5-3.29-2.25-4.21-2.25
		c-0.78,0-1.63,0.44-2.54,1.3c-1.96,1.78-3.98,4.72-6.06,8.8V94c0,3.3,0.41,5.8,1.24,7.5c0.56,1.17,1.56,2.15,3,2.93
		c1.43,0.78,3.5,1.17,6.19,1.17v2.35h-30.57v-2.35c3.04,0,5.3-0.48,6.78-1.43c1.09-0.69,1.85-1.8,2.28-3.32
		c0.22-0.74,0.33-2.85,0.33-6.32V71.39c0-6.95-0.14-11.09-0.42-12.42c-0.28-1.33-0.8-2.29-1.56-2.9s-1.71-0.91-2.84-0.91
		c-1.35,0-2.87,0.33-4.56,0.98l-0.65-2.35l18.06-7.3H380.27z"/>
	<path class="st3" d="M427.85,46.49v47.98c0,3.74,0.27,6.23,0.82,7.46c0.54,1.24,1.35,2.16,2.41,2.77c1.06,0.61,3.01,0.91,5.83,0.91
		v2.35H407.9v-2.35c2.91,0,4.87-0.28,5.87-0.85c1-0.56,1.79-1.5,2.38-2.8s0.88-3.8,0.88-7.5v-23c0-6.47-0.2-10.67-0.59-12.58
		c-0.3-1.39-0.78-2.36-1.43-2.9s-1.54-0.81-2.67-0.81c-1.22,0-2.7,0.33-4.43,0.98L407,53.8l17.99-7.3L427.85,46.49L427.85,46.49z
		 M422.44,15.27c1.83,0,3.38,0.64,4.66,1.92c1.28,1.28,1.92,2.84,1.92,4.66s-0.64,3.39-1.92,4.69c-1.28,1.3-2.84,1.96-4.66,1.96
		s-3.39-0.65-4.69-1.96s-1.96-2.87-1.96-4.69s0.64-3.38,1.92-4.66C419,15.91,420.58,15.27,422.44,15.27z"/>
	<path class="st3" d="M454.39,70.74c-0.04,8.87,2.11,15.82,6.45,20.86c4.34,5.04,9.45,7.56,15.32,7.56c3.91,0,7.31-1.08,10.2-3.23
		s5.31-5.83,7.27-11.05l2.02,1.3c-0.91,5.96-3.56,11.38-7.95,16.26c-4.39,4.89-9.89,7.33-16.49,7.33c-7.17,0-13.31-2.79-18.42-8.38
		c-5.11-5.58-7.66-13.09-7.66-22.52c0-10.21,2.62-18.18,7.86-23.89s11.81-8.57,19.72-8.57c6.69,0,12.19,2.21,16.49,6.62
		s6.45,10.31,6.45,17.7h-41.26V70.74z M454.39,66.96h27.64c-0.22-3.82-0.67-6.52-1.37-8.08c-1.09-2.43-2.71-4.35-4.86-5.74
		s-4.4-2.09-6.75-2.09c-3.61,0-6.83,1.4-9.68,4.21C456.53,58.06,454.86,61.96,454.39,66.96z"/>
	<path class="st3" d="M542.2,46.49v20.34h-2.15c-1.65-6.39-3.77-10.73-6.36-13.04c-2.59-2.3-5.88-3.46-9.88-3.46
		c-3.04,0-5.5,0.8-7.37,2.41s-2.8,3.39-2.8,5.35c0,2.43,0.7,4.52,2.09,6.26c1.35,1.78,4.08,3.67,8.21,5.67l9.52,4.63
		c8.82,4.3,13.23,9.97,13.23,17.01c0,5.43-2.05,9.81-6.16,13.13c-4.11,3.33-8.7,4.99-13.79,4.99c-3.65,0-7.82-0.65-12.52-1.96
		c-1.43-0.43-2.61-0.65-3.52-0.65c-1,0-1.78,0.57-2.35,1.7h-2.15V87.56h2.15c1.22,6.08,3.54,10.67,6.98,13.75
		c3.43,3.09,7.28,4.63,11.54,4.63c3,0,5.44-0.88,7.33-2.64s2.84-3.88,2.84-6.36c0-3-1.05-5.52-3.16-7.56s-6.31-4.63-12.61-7.76
		c-6.3-3.13-10.43-5.95-12.39-8.47c-1.96-2.48-2.93-5.61-2.93-9.39c0-4.91,1.68-9.02,5.05-12.32s7.72-4.95,13.07-4.95
		c2.35,0,5.19,0.5,8.54,1.5c2.22,0.65,3.69,0.98,4.43,0.98c0.69,0,1.24-0.15,1.63-0.46c0.39-0.3,0.85-0.98,1.37-2.02
		C540.04,46.49,542.2,46.49,542.2,46.49z"/>
</g>
<g class="st0">
	<path class="st4" d="M188.61,17.55c11.47,0,21.41,4.36,29.82,13.07c8.41,8.71,12.61,19.59,12.61,32.63
		c0,13.43-4.24,24.58-12.71,33.44c-8.47,8.87-18.73,13.3-30.77,13.3c-12.17,0-22.39-4.32-30.67-12.97s-12.42-19.84-12.42-33.57
		c0-14.04,4.78-25.49,14.34-34.35C167.12,21.39,177.05,17.55,188.61,17.55z M187.37,22.31c-7.91,0-14.25,2.93-19.04,8.8
		c-5.95,7.3-8.93,17.99-8.93,32.07c0,14.43,3.09,25.53,9.26,33.31c4.74,5.91,10.99,8.87,18.77,8.87c8.3,0,15.16-3.24,20.57-9.71
		c5.41-6.48,8.12-16.69,8.12-30.64c0-15.12-2.98-26.4-8.93-33.83C202.41,25.26,195.8,22.31,187.37,22.31z"/>
	<path class="st4" d="M257.78,59.14c7-8.43,13.67-12.65,20.01-12.65c3.26,0,6.06,0.81,8.41,2.44c2.35,1.63,4.21,4.31,5.61,8.05
		c0.96,2.61,1.43,6.61,1.43,12v25.49c0,3.78,0.3,6.35,0.91,7.69c0.48,1.09,1.25,1.93,2.31,2.54s3.03,0.91,5.9,0.91v2.35h-29.53
		v-2.35h1.24c2.78,0,4.73-0.42,5.83-1.27s1.88-2.1,2.31-3.75c0.17-0.65,0.26-2.69,0.26-6.13V70.02c0-5.43-0.71-9.38-2.12-11.83
		c-1.41-2.46-3.79-3.68-7.14-3.68c-5.17,0-10.32,2.83-15.45,8.47v31.49c0,4.04,0.24,6.54,0.72,7.5c0.61,1.26,1.44,2.18,2.51,2.77
		c1.06,0.59,3.23,0.88,6.49,0.88v2.35h-29.53v-2.35h1.3c3.04,0,5.09-0.77,6.16-2.31c1.06-1.54,1.6-4.49,1.6-8.83V72.31
		c0-7.17-0.16-11.54-0.49-13.1c-0.33-1.56-0.83-2.63-1.5-3.19c-0.67-0.56-1.58-0.85-2.71-0.85c-1.22,0-2.67,0.33-4.37,0.98
		l-0.98-2.35l17.99-7.3h2.8v12.64H257.78z"/>
	<path class="st4" d="M317.16,70.74c-0.04,8.87,2.11,15.82,6.45,20.86c4.35,5.04,9.45,7.56,15.32,7.56c3.91,0,7.31-1.08,10.2-3.23
		s5.31-5.83,7.27-11.05l2.02,1.3c-0.91,5.96-3.56,11.38-7.95,16.26c-4.39,4.89-9.89,7.33-16.49,7.33c-7.17,0-13.31-2.79-18.42-8.38
		c-5.11-5.58-7.66-13.09-7.66-22.52c0-10.21,2.62-18.18,7.86-23.89s11.81-8.57,19.72-8.57c6.69,0,12.19,2.21,16.49,6.62
		s6.45,10.31,6.45,17.7h-41.26V70.74z M317.16,66.96h27.64c-0.22-3.82-0.67-6.52-1.37-8.08c-1.09-2.43-2.71-4.35-4.86-5.74
		s-4.4-2.09-6.75-2.09c-3.61,0-6.83,1.4-9.68,4.21C319.3,58.06,317.64,61.96,317.16,66.96z"/>
	<path class="st4" d="M404.97,46.49v20.34h-2.15c-1.65-6.39-3.77-10.73-6.36-13.04c-2.59-2.3-5.88-3.46-9.88-3.46
		c-3.04,0-5.5,0.8-7.37,2.41s-2.8,3.39-2.8,5.35c0,2.43,0.7,4.52,2.09,6.26c1.35,1.78,4.08,3.67,8.21,5.67l9.52,4.63
		c8.82,4.3,13.23,9.97,13.23,17.01c0,5.43-2.05,9.81-6.16,13.13c-4.11,3.33-8.7,4.99-13.79,4.99c-3.65,0-7.82-0.65-12.52-1.96
		c-1.43-0.43-2.61-0.65-3.52-0.65c-1,0-1.78,0.57-2.35,1.7h-2.15V87.56h2.15c1.22,6.08,3.54,10.67,6.98,13.75
		c3.43,3.09,7.28,4.63,11.54,4.63c3,0,5.44-0.88,7.33-2.64s2.84-3.88,2.84-6.36c0-3-1.05-5.52-3.16-7.56
		c-2.11-2.04-6.31-4.63-12.61-7.76c-6.3-3.13-10.43-5.95-12.39-8.47c-1.96-2.48-2.93-5.61-2.93-9.39c0-4.91,1.68-9.02,5.05-12.32
		s7.72-4.95,13.07-4.95c2.35,0,5.19,0.5,8.54,1.5c2.22,0.65,3.69,0.98,4.43,0.98c0.69,0,1.24-0.15,1.63-0.46
		c0.39-0.3,0.85-0.98,1.37-2.02C402.81,46.49,404.97,46.49,404.97,46.49z"/>
	<path class="st4" d="M435.87,15.27v43.68c4.82-5.3,8.65-8.7,11.47-10.2c2.83-1.5,5.65-2.25,8.47-2.25c3.39,0,6.3,0.93,8.74,2.8
		c2.43,1.87,4.24,4.8,5.41,8.8c0.83,2.78,1.24,7.87,1.24,15.25v21.12c0,3.78,0.3,6.37,0.91,7.76c0.43,1.04,1.17,1.87,2.22,2.48
		c1.04,0.61,2.96,0.91,5.74,0.91v2.35h-29.33v-2.35h1.37c2.78,0,4.72-0.42,5.8-1.27s1.85-2.1,2.28-3.75c0.13-0.69,0.2-2.74,0.2-6.13
		V73.35c0-6.52-0.34-10.8-1.01-12.84s-1.75-3.57-3.23-4.6c-1.48-1.02-3.26-1.53-5.35-1.53c-2.13,0-4.35,0.57-6.65,1.69
		c-2.3,1.13-5.06,3.41-8.28,6.85v31.55c0,4.09,0.23,6.63,0.68,7.63c0.46,1,1.3,1.84,2.54,2.51c1.24,0.67,3.38,1.01,6.42,1.01v2.35
		h-29.6v-2.35c2.65,0,4.74-0.41,6.26-1.24c0.87-0.43,1.56-1.26,2.09-2.48c0.52-1.22,0.78-3.69,0.78-7.43V40.43
		c0-6.82-0.16-11.02-0.49-12.58s-0.83-2.63-1.5-3.19c-0.67-0.56-1.58-0.85-2.71-0.85c-0.91,0-2.39,0.35-4.43,1.04L415,22.57
		l17.86-7.3C432.86,15.27,435.87,15.27,435.87,15.27z"/>
	<path class="st4" d="M514.3,46.49c9.04,0,16.3,3.43,21.77,10.3c4.65,5.87,6.98,12.6,6.98,20.21c0,5.35-1.28,10.76-3.85,16.23
		s-6.09,9.6-10.59,12.39c-4.5,2.78-9.51,4.17-15.03,4.17c-9,0-16.15-3.58-21.45-10.76c-4.48-6.04-6.71-12.82-6.71-20.34
		c0-5.48,1.36-10.92,4.07-16.33c2.72-5.41,6.29-9.41,10.72-11.99S509.34,46.49,514.3,46.49z M512.27,50.73
		c-2.3,0-4.62,0.68-6.94,2.05c-2.33,1.37-4.21,3.77-5.64,7.2c-1.43,3.43-2.15,7.84-2.15,13.23c0,8.69,1.73,16.19,5.18,22.49
		c3.46,6.3,8.01,9.45,13.66,9.45c4.21,0,7.69-1.74,10.43-5.22s4.11-9.45,4.11-17.93c0-10.6-2.28-18.95-6.84-25.03
		C520.99,52.81,517.05,50.73,512.27,50.73z"/>
	<path class="st4" d="M569.18,28.63v19.62h13.95v4.56h-13.95v38.72c0,3.87,0.55,6.48,1.66,7.82s2.53,2.02,4.27,2.02
		c1.43,0,2.82-0.45,4.17-1.34s2.39-2.21,3.13-3.94h2.54c-1.52,4.26-3.67,7.46-6.45,9.62s-5.65,3.23-8.6,3.23
		c-2,0-3.96-0.55-5.87-1.66s-3.32-2.69-4.24-4.76c-0.91-2.06-1.37-5.25-1.37-9.55V52.81h-9.45v-2.15c2.39-0.96,4.83-2.58,7.33-4.86
		c2.5-2.28,4.73-4.99,6.68-8.12c1-1.65,2.39-4.67,4.17-9.06h2.03V28.63z"/>
	<path class="st4" d="M627.53,46.49v20.34h-2.15c-1.65-6.39-3.77-10.73-6.36-13.04c-2.59-2.3-5.88-3.46-9.88-3.46
		c-3.04,0-5.5,0.8-7.37,2.41s-2.8,3.39-2.8,5.35c0,2.43,0.7,4.52,2.09,6.26c1.35,1.78,4.08,3.67,8.21,5.67l9.52,4.63
		c8.82,4.3,13.23,9.97,13.23,17.01c0,5.43-2.05,9.81-6.16,13.13c-4.11,3.33-8.7,4.99-13.79,4.99c-3.65,0-7.82-0.65-12.52-1.96
		c-1.43-0.43-2.61-0.65-3.52-0.65c-1,0-1.78,0.57-2.35,1.7h-2.15V87.56h2.15c1.22,6.08,3.54,10.67,6.98,13.75
		c3.43,3.09,7.28,4.63,11.54,4.63c3,0,5.44-0.88,7.33-2.64s2.84-3.88,2.84-6.36c0-3-1.05-5.52-3.16-7.56s-6.31-4.63-12.61-7.76
		c-6.3-3.13-10.43-5.95-12.39-8.47c-1.96-2.48-2.93-5.61-2.93-9.39c0-4.91,1.68-9.02,5.05-12.32s7.72-4.95,13.07-4.95
		c2.35,0,5.19,0.5,8.54,1.5c2.22,0.65,3.69,0.98,4.43,0.98c0.69,0,1.24-0.15,1.63-0.46c0.39-0.3,0.85-0.98,1.37-2.02
		C625.37,46.49,627.53,46.49,627.53,46.49z"/>
</g>
</svg>
